<?xml version="1.0" encoding="iso-8859-1"?>
<!-- Generator: Adobe Illustrator 17.1.0, SVG Export Plug-In . SVG Version: 6.00 Build 0)  -->
<!DOCTYPE svg PUBLIC "-//W3C//DTD SVG 1.1//EN" "http://www.w3.org/Graphics/SVG/1.1/DTD/svg11.dtd">
<svg version="1.1" id="Capa_1" xmlns="http://www.w3.org/2000/svg" xmlns:xlink="http://www.w3.org/1999/xlink" x="0px" y="0px"
	 viewBox="0 0 385.46 385.46" style="enable-background:new 0 0 385.46 385.46;" xml:space="preserve">
<path d="M69.095,179.812v-75.176C69.095,46.939,116.034,0,173.731,0c57.696,0,104.636,46.939,104.636,104.636v75.176
	c0,25.974-21.131,47.104-47.104,47.104c-4.971,0-9-4.029-9-9s4.029-9,9-9c16.048,0,29.104-13.057,29.104-29.104v-75.176
	c0-47.771-38.863-86.636-86.634-86.636c-47.772,0-86.639,38.864-86.639,86.636v75.176c0,16.048,13.057,29.104,29.104,29.104
	c4.971,0,9,4.029,9,9s-4.029,9-9,9C90.226,226.916,69.095,205.785,69.095,179.812z M142.946,121.638
	c-3.79,1.999-7.71,4.065-11.509,6.201c-7.951,4.47-15.577,9.746-17.523,18.019c-1.705,7.251,1.715,13.535,4.884,18.199
	c7.239,10.658,26.893,35.451,53.003,35.494c8.067-0.015,16.053-2.578,25.893-8.314c23.504-13.698,38.104-39.742,38.104-67.968
	c0-11.783-1.896-22.656-5.636-32.317c-1.795-4.635-7.009-6.939-11.643-5.145c-4.636,1.795-6.938,7.007-5.145,11.643
	c2.935,7.581,4.423,16.268,4.423,25.819c0,21.846-11.177,41.931-29.169,52.417c-6.944,4.048-12.145,5.857-16.829,5.865
	c-14.29-0.023-29.058-14.277-38.113-27.608c-1.642-2.417-2.071-3.595-2.184-4.032c0.388-0.607,2.064-2.619,8.756-6.381
	c3.587-2.018,7.397-4.026,11.083-5.969c20.512-10.814,41.723-21.998,45.4-44.241c3.29-19.9-3.794-31.984-10.316-38.617
	c-10.505-10.684-27.48-15.186-46.567-12.362c-4.917,0.729-8.313,5.305-7.585,10.222c0.729,4.918,5.318,8.31,10.222,7.584
	c13.34-1.975,24.67,0.642,31.096,7.178c5.229,5.316,7.043,13.075,5.392,23.061C176.764,103.809,160.337,112.469,142.946,121.638z
	 M313.794,369.979c3.579,3.449,3.685,9.146,0.235,12.726c-1.766,1.833-4.122,2.755-6.481,2.755c-2.248,0-4.498-0.837-6.244-2.52
	l-23.51-22.654l-23.508,22.654c-3.579,3.45-9.276,3.344-12.726-0.235s-3.344-9.276,0.235-12.726l17.432-16.8
	c-18.149-7.361-30.982-25.18-30.982-45.939c0-27.322,22.228-49.55,49.55-49.55s49.55,22.228,49.55,49.55
	c0,20.76-12.834,38.578-30.983,45.94L313.794,369.979z M277.96,338.788c17.32-0.09,31.385-14.208,31.385-31.549
	c0-17.396-14.153-31.55-31.55-31.55s-31.55,14.153-31.55,31.55c0,17.341,14.063,31.459,31.383,31.549
	c0.056-0.001,0.11-0.002,0.166-0.002S277.904,338.787,277.96,338.788z M224.071,243.677c-9.314-5.572-15.552-11.714-18.539-18.256
	c-2.064-4.521-7.402-6.514-11.926-4.447c-4.521,2.064-6.513,7.404-4.447,11.926c4.531,9.921,13.168,18.744,25.672,26.225
	c1.447,0.866,3.039,1.277,4.611,1.277c3.062,0,6.046-1.563,7.732-4.381C229.727,251.756,228.337,246.229,224.071,243.677z
	 M203.701,367.458h-54.983L82.62,278.604c42.813-10.416,68.218-25.425,77.48-45.705c2.065-4.521,0.074-9.86-4.447-11.926
	c-4.523-2.064-9.86-0.073-11.926,4.447c-5.183,11.348-22.964,27.244-78.229,38.566c-0.695,0.127-1.381,0.336-2.042,0.632
	c-0.999,0.443-1.89,1.058-2.646,1.8c-0.946,0.927-1.651,2.027-2.103,3.212c-0.455,1.188-0.663,2.483-0.573,3.811
	c0.069,1.043,0.319,2.081,0.759,3.066c0.299,0.672,0.675,1.295,1.116,1.86l76.965,103.463c1.005,1.351,2.315,2.339,3.766,2.94
	c0.725,0.301,1.496,0.51,2.301,0.613c0.385,0.05,0.772,0.075,1.161,0.075c0.056,0,0.11-0.001,0.166-0.002h59.332
	c4.971,0,9-4.029,9-9S208.672,367.458,203.701,367.458z"/>
<g>
</g>
<g>
</g>
<g>
</g>
<g>
</g>
<g>
</g>
<g>
</g>
<g>
</g>
<g>
</g>
<g>
</g>
<g>
</g>
<g>
</g>
<g>
</g>
<g>
</g>
<g>
</g>
<g>
</g>
</svg>
